{
  "accessors": [
    {
      "bufferView": 2,
      "componentType": 5126,
      "count": 4088,
      "max": [
        0.8379364013671875,
        1.0600929260253906,
        1.627648115158081
      ],
      "min": [
        -0.8379364013671875,
        -1.0600929260253906,
        -1.627648115158081
      ],
      "type": "VEC3"
    },
    {
      "bufferView": 2,
      "byteOffset": 49056,
      "componentType": 5126,
      "count": 4088,
      "max": [
        0.9999995231628418,
        0.9950432181358337,
        0.9995813369750977
      ],
      "min": [
        -0.9999587535858154,
        -0.9997337460517883,
        -0.9999271035194397
      ],
      "type": "VEC3"
    },
    {
      "bufferView": 1,
      "componentType": 5126,
      "count": 4088,
      "max": [
        1.5119476318359375,
        1.071446418762207
      ],
      "min": [
        -0.49829262495040894,
        -0.11985200643539429
      ],
      "type": "VEC2"
    },
    {
      "bufferView": 2,
      "byteOffset": 98112,
      "componentType": 5126,
      "count": 4088,
      "max": [
        5.492739677429199,
        3.7122507095336914,
        3.9127514362335205
      ],
      "min": [
        -1.7734248638153076,
        -3.7122507095336914,
        -5.343075752258301
      ],
      "type": "VEC3"
    },
    {
      "bufferView": 2,
      "byteOffset": 147168,
      "componentType": 5126,
      "count": 4088,
      "max": [
        1.6735566854476929,
        1.8909053802490234,
        1.8548755645751953
      ],
      "min": [
        -1.7400918006896973,
        -1.7521159648895264,
        -1.260869026184082
      ],
      "type": "VEC3"
    },
    {
      "bufferView": 0,
      "componentType": 5125,
      "count": 14952,
      "type": "SCALAR"
    },
    {
      "bufferView": 3,
      "componentType": 5126,
      "count": 150,
      "max": [
        5.008333206176758
      ],
      "min": [
        0.0416666679084301
      ],
      "type": "SCALAR"
    },
    {
      "bufferView": 3,
      "byteOffset": 600,
      "componentType": 5126,
      "count": 150,
      "max": [
        0.9998756647109985
      ],
      "min": [
        1.8447007810173943e-11
      ],
      "type": "SCALAR"
    }
  ],
  "animations": [
    {
      "channels": [
        {
          "sampler": 0,
          "target": {
            "node": 6,
            "path": "weights"
          }
        }
      ],
      "name": "Take 001",
      "samplers": [
        {
          "input": 6,
          "interpolation": "LINEAR",
          "output": 7
        }
      ]
    }
  ],
  "asset": {
    "extras": {
      "author": "romenkova (https://sketchfab.com/romenkova)",
      "license": "CC-BY-4.0 (http://creativecommons.org/licenses/by/4.0/)",
      "source": "https://sketchfab.com/3d-models/headglich-6b54028607c841e4814b7d48a97257dc",
      "title": "HeadGlich"
    },
    "generator": "Sketchfab-12.68.0",
    "version": "2.0"
  },
  "bufferViews": [
    {
      "buffer": 0,
      "byteLength": 59808,
      "name": "floatBufferViews",
      "target": 34963
    },
    {
      "buffer": 0,
      "byteLength": 32704,
      "byteOffset": 59808,
      "byteStride": 8,
      "name": "floatBufferViews",
      "target": 34962
    },
    {
      "buffer": 0,
      "byteLength": 196224,
      "byteOffset": 92512,
      "byteStride": 12,
      "name": "floatBufferViews",
      "target": 34962
    },
    {
      "buffer": 0,
      "byteLength": 1200,
      "byteOffset": 288736,
      "name": "floatBufferViews"
    }
  ],
  "buffers": [
    {
      "byteLength": 289936,
      "uri": "scene.bin"
    }
  ],
  "extensionsUsed": [
    "KHR_materials_clearcoat"
  ],
  "materials": [
    {
      "doubleSided": true,
      "extensions": {
        "KHR_materials_clearcoat": {
          "clearcoatFactor": 1.0,
          "clearcoatRoughnessFactor": 0.04
        }
      },
      "name": "lambert1",
      "pbrMetallicRoughness": {
        "roughnessFactor": 0.11724118011893614
      }
    }
  ],
  "meshes": [
    {
      "name": "0",
      "primitives": [
        {
          "attributes": {
            "NORMAL": 1,
            "POSITION": 0,
            "TEXCOORD_0": 2
          },
          "indices": 5,
          "material": 0,
          "mode": 4,
          "targets": [
            {
              "NORMAL": 4,
              "POSITION": 3
            }
          ]
        }
      ],
      "weights": [
        0.0
      ]
    }
  ],
  "nodes": [
    {
      "children": [
        1
      ],
      "matrix": [
        1.0,
        0.0,
        0.0,
        0.0,
        0.0,
        2.220446049250313e-16,
        -1.0,
        0.0,
        0.0,
        1.0,
        2.220446049250313e-16,
        0.0,
        0.0,
        0.0,
        0.0,
        1.0
      ],
      "name": "Sketchfab_model"
    },
    {
      "children": [
        2
      ],
      "matrix": [
        1.0,
        0.0,
        0.0,
        0.0,
        0.0,
        0.0,
        1.0,
        0.0,
        0.0,
        -1.0,
        0.0,
        0.0,
        0.0,
        0.0,
        0.0,
        1.0
      ],
      "name": "head.fbx"
    },
    {
      "children": [
        3
      ],
      "name": "Object_2"
    },
    {
      "children": [
        4
      ],
      "name": "RootNode"
    },
    {
      "children": [
        5
      ],
      "name": "sit2:Genesis2Female.Shape",
      "translation": [
        7.579068183898926,
        -0.6133515238761902,
        -7.25969123840332
      ]
    },
    {
      "children": [
        6
      ],
      "name": "polySurface3",
      "translation": [
        -7.79392147064209,
        2.269456624984741,
        6.393859386444092
      ]
    },
    {
      "mesh": 0,
      "name": "0"
    }
  ],
  "scene": 0,
  "scenes": [
    {
      "name": "Sketchfab_Scene",
      "nodes": [
        0
      ]
    }
  ]
}
