<?xml version="1.0" encoding="utf-8"?>

<!DOCTYPE svg PUBLIC "-//W3C//DTD SVG 1.1//EN" "http://www.w3.org/Graphics/SVG/1.1/DTD/svg11.dtd">
<svg version="1.1" id="Layer_1" fill="white" xmlns="http://www.w3.org/2000/svg" xmlns:xlink="http://www.w3.org/1999/xlink" x="0px" y="0px"
	 viewBox="0 0 2606 446" enable-background="new 0 0 2606 446" xml:space="preserve">
<path d="M1485.545,266.352c79.565,38.241,160.714,76.322,243.888,113.354c-77.787-42.68-156.685-83.993-228.901-121.018
	c6.956-3.564,13.966-7.169,20.992-10.787c68.03,32.433,137.239,64.659,207.909,96.123c-65.501-35.939-131.8-70.914-194.228-103.173
	c7.403-3.823,14.831-7.669,22.298-11.547c56.43,26.655,113.684,53.106,171.93,79.039c-53.611-29.415-107.724-58.166-159.85-85.333
	c52.414-27.31,106.147-55.869,159.85-85.353c-58.309,25.942-116.631,52.896-172.001,79.031c-7.454-3.873-14.87-7.717-22.227-11.518
	c63.132-32.608,128.717-67.226,194.228-103.194c-71.303,31.724-142.084,64.691-207.994,96.091
	c-7.03-3.621-13.991-7.196-20.907-10.742c73.599-37.712,151.302-78.426,228.902-121.031
	c-84.477,37.585-168.206,76.909-243.983,113.311c-6.68-3.414-13.306-6.795-19.855-10.129
	c83.71-42.588,173.832-89.447,263.838-138.864c-98.09,43.641-195.189,89.634-279.973,130.664
	c-55.897-28.368-106.228-53.481-146.809-73.769c-45.108,22.543-94.632,47.298-146.886,73.805
	c-90.908-43.998-183.901-87.95-279.514-130.527c0.105-0.058,0.211-0.115,0.316-0.173c-0.117,0.052-0.234,0.105-0.351,0.157
	c-0.117-0.052-0.231-0.105-0.348-0.157c0.105,0.057,0.21,0.115,0.314,0.172c-97.959,43.59-194.914,89.516-279.588,130.492
	c-55.898-28.368-106.228-53.481-146.81-73.769c-45.108,22.543-94.632,47.298-146.886,73.805
	C211.868,117.257,118.749,73.244,23,30.613c90.532,49.673,182.59,97.507,263.837,138.866c-6.614,3.365-13.257,6.751-19.948,10.169
	C187.323,141.408,106.174,103.326,23,66.295c77.787,42.68,156.685,83.993,228.901,121.018c-6.956,3.564-13.965,7.169-20.992,10.787
	C162.88,165.666,93.67,133.44,23,101.976c65.501,35.939,131.8,70.914,194.228,103.173c-7.403,3.823-14.831,7.669-22.298,11.547
	C138.501,190.041,81.246,163.59,23,137.657c53.61,29.415,107.723,58.166,159.85,85.333C130.436,250.3,76.702,278.859,23,308.343
	c58.308-25.942,116.632-52.896,172.001-79.031c7.454,3.873,14.871,7.717,22.227,11.518C154.096,273.438,88.511,308.056,23,344.024
	c71.303-31.724,142.084-64.691,207.994-96.091c7.03,3.621,13.991,7.196,20.907,10.742C178.302,296.387,100.6,337.101,23,379.706
	c84.477-37.585,168.206-76.909,243.983-113.311c6.68,3.414,13.307,6.795,19.855,10.128C203.128,319.111,113.006,365.97,23,415.387
	c98.09-43.641,195.188-89.634,279.973-130.664c55.898,28.368,106.228,53.481,146.81,73.769
	c45.108-22.543,94.632-47.298,146.886-73.805c90.908,43.997,183.901,87.95,279.514,130.527c-0.105,0.058-0.211,0.115-0.316,0.173
	c0.117-0.052,0.234-0.105,0.351-0.157c0.117,0.052,0.231,0.105,0.348,0.157c-0.105-0.057-0.21-0.115-0.314-0.172
	c97.959-43.59,194.914-89.516,279.588-130.492c55.897,28.368,106.228,53.481,146.809,73.769
	c45.108-22.543,94.632-47.298,146.886-73.805c91.03,44.057,184.149,88.069,279.898,130.7
	c-90.532-49.673-182.59-97.507-263.837-138.866C1472.211,273.156,1478.853,269.77,1485.545,266.352z M1449.46,268.32
	c-6.422-3.259-12.766-6.474-19.03-9.642c6.336-3.204,12.683-6.415,19.105-9.672c6.64,3.214,13.308,6.423,19.971,9.635
	C1462.745,261.899,1456.054,265.129,1449.46,268.32z M1302.647,304.449c-30.869-15.182-61.975-30.446-93.312-45.737
	c6.251-3.053,12.419-6.068,18.478-9.035c27.512,13.81,52.696,26.384,74.836,37.452c23.806-11.897,48.875-24.428,74.89-37.488
	c6.142,3.004,12.265,6.004,18.426,9.01C1361.765,275.352,1330.358,290.812,1302.647,304.449z M449.78,304.449
	c-30.869-15.182-61.976-30.446-93.312-45.737c6.251-3.053,12.419-6.068,18.479-9.035c27.512,13.81,52.696,26.384,74.836,37.452
	c23.806-11.897,48.874-24.428,74.89-37.488c6.142,3.004,12.265,6.004,18.425,9.01C508.898,275.352,477.491,290.812,449.78,304.449z
	 M449.787,141.551c30.869,15.182,61.975,30.446,93.312,45.737c-6.251,3.053-12.42,6.068-18.479,9.035
	c-27.512-13.81-52.696-26.384-74.835-37.452c-23.806,11.897-48.874,24.428-74.89,37.488c-6.142-3.004-12.265-6.004-18.425-9.01
	C390.668,170.649,422.075,155.188,449.787,141.551z M1302.653,141.551c30.869,15.182,61.975,30.446,93.312,45.737
	c-6.251,3.052-12.42,6.068-18.479,9.035c-27.512-13.81-52.696-26.384-74.835-37.452c-23.806,11.897-48.875,24.428-74.89,37.488
	c-6.141-3.004-12.264-6.004-18.425-9.01C1243.535,170.648,1274.943,155.188,1302.653,141.551z M1413.474,214.43
	c-6.241-3.148-12.364-6.231-18.415-9.275c6.102-3.069,12.28-6.184,18.477-9.309c6.347,3.09,12.727,6.181,19.095,9.271
	C1426.171,208.253,1419.77,211.363,1413.474,214.43z M1449.536,213.324c6.64,3.213,13.308,6.422,19.97,9.635
	c-6.75,3.254-13.438,6.483-20.044,9.68c-6.422-3.259-12.767-6.474-19.031-9.643C1436.766,219.793,1443.114,216.582,1449.536,213.324
	z M1302.647,268.767c-18.859-9.275-37.816-18.581-56.847-27.905c6.106-2.996,12.126-5.951,17.999-8.837
	c13.77,6.888,26.775,13.386,38.851,19.422c12.602-6.298,25.623-12.807,38.876-19.439c5.984,2.936,11.973,5.871,17.974,8.811
	C1339.218,250.769,1320.192,260.134,1302.647,268.767z M1302.653,177.233c18.858,9.275,37.817,18.581,56.847,27.905
	c-6.106,2.996-12.126,5.951-17.999,8.837c-13.77-6.888-26.775-13.386-38.85-19.422c-12.602,6.298-25.623,12.807-38.876,19.439
	c-5.984-2.936-11.974-5.871-17.975-8.811C1266.083,195.231,1285.109,185.867,1302.653,177.233z M1302.647,233.086
	c-6.813-3.351-13.677-6.718-20.513-10.076c7.045-3.465,13.887-6.832,20.519-10.096c6.813,3.351,13.677,6.718,20.512,10.076
	C1316.121,226.455,1309.28,229.822,1302.647,233.086z M1245.78,223.004c-5.964,2.989-11.945,5.987-18.019,9.036
	c-6.142-3.004-12.265-6.004-18.425-9.01c6.251-3.052,12.419-6.068,18.479-9.035C1233.932,217.067,1239.9,220.059,1245.78,223.004z
	 M1359.52,222.996c5.964-2.989,11.945-5.987,18.019-9.036c6.142,3.004,12.265,6.004,18.426,9.01
	c-6.251,3.052-12.42,6.068-18.479,9.035C1371.368,228.933,1365.401,225.942,1359.52,222.996z M1210.241,205.164
	c-6.101,3.069-12.279,6.184-18.476,9.309c-6.347-3.09-12.727-6.181-19.095-9.271c6.46-3.136,12.86-6.247,19.157-9.313
	C1198.067,199.037,1204.191,202.12,1210.241,205.164z M1174.87,223.004c-6.336,3.204-12.684,6.415-19.106,9.672
	c-6.639-3.213-13.308-6.422-19.97-9.635c6.75-3.254,13.438-6.483,20.044-9.68C1162.26,216.62,1168.606,219.835,1174.87,223.004z
	 M1155.765,196.995c-6.64-3.214-13.308-6.423-19.971-9.635c6.762-3.258,13.452-6.488,20.047-9.679
	c6.421,3.259,12.766,6.474,19.03,9.642C1168.535,190.526,1162.186,193.737,1155.765,196.995z M1139.704,205.161
	c-6.614,3.365-13.256,6.751-19.948,10.169c-7.036-3.382-14.038-6.766-21.101-10.145c7.136-3.411,14.204-6.797,21.193-10.154
	C1126.527,198.445,1133.158,201.829,1139.704,205.161z M876.25,137.83c0.105-0.058,0.211-0.115,0.316-0.173
	c-0.117,0.052-0.234,0.105-0.351,0.157c-0.117-0.052-0.232-0.105-0.348-0.157c0.105,0.057,0.21,0.115,0.314,0.172
	c-58.18,25.889-116.368,52.781-171.616,78.859c-7.454-3.873-14.871-7.717-22.227-11.518c63.02-32.55,128.483-67.104,193.878-103.002
	c65.388,35.872,131.561,70.781,193.878,102.982c-7.403,3.823-14.831,7.669-22.298,11.547
	C991.492,190.1,934.363,163.708,876.25,137.83z M1035.717,222.99c-52.3,27.251-105.914,55.745-159.5,85.162
	c-53.496-29.349-107.487-58.034-159.5-85.141c52.3-27.251,105.914-55.745,159.5-85.162
	C929.713,167.197,983.703,195.882,1035.717,222.99z M691.287,222.965c-7.637,3.618-15.201,7.212-22.706,10.787
	c-7.035-3.623-13.997-7.199-20.915-10.746c6.956-3.564,13.966-7.169,20.992-10.787C676.18,215.806,683.735,219.385,691.287,222.965z
	 M704.637,229.304c56.305,26.596,113.433,52.988,171.546,78.866c-0.105,0.058-0.211,0.115-0.316,0.173
	c0.117-0.052,0.234-0.105,0.351-0.157c0.117,0.052,0.232,0.105,0.348,0.157c-0.105-0.057-0.21-0.115-0.314-0.172
	c58.18-25.889,116.368-52.781,171.616-78.859c7.454,3.873,14.871,7.718,22.227,11.518c-63.02,32.55-128.483,67.103-193.878,103.002
	c-65.388-35.872-131.561-70.781-193.878-102.982C689.742,237.028,697.17,233.182,704.637,229.304z M1061.146,223.035
	c7.637-3.618,15.201-7.212,22.706-10.787c7.035,3.623,13.996,7.198,20.915,10.746c-6.956,3.564-13.966,7.17-20.992,10.787
	C1076.254,230.194,1068.699,226.615,1061.146,223.035z M1083.776,198.099c-67.906-32.374-136.99-64.54-207.526-95.95
	c0.105-0.058,0.211-0.115,0.316-0.173c-0.117,0.052-0.234,0.105-0.351,0.157c-0.117-0.052-0.231-0.105-0.348-0.157
	c0.105,0.057,0.21,0.115,0.314,0.172c-71.173,31.671-141.818,64.575-207.609,95.919c-7.03-3.621-13.991-7.196-20.907-10.742
	c73.489-37.656,151.068-78.305,228.551-120.84c77.674,42.613,156.444,83.857,228.552,120.826
	C1097.812,190.876,1090.802,194.482,1083.776,198.099z M653.772,205.13c-7.133,3.41-14.184,6.792-21.187,10.156
	c-6.679-3.414-13.309-6.797-19.855-10.129c6.614-3.365,13.256-6.751,19.948-10.169C639.712,198.37,646.712,201.753,653.772,205.13z
	 M616.639,222.959c-6.75,3.254-13.438,6.483-20.044,9.68c-6.422-3.259-12.767-6.474-19.031-9.643
	c6.336-3.204,12.684-6.415,19.106-9.672C603.309,216.538,609.977,219.747,616.639,222.959z M596.595,196.958
	c-6.422-3.259-12.767-6.474-19.032-9.643c6.336-3.204,12.684-6.415,19.106-9.672c6.64,3.213,13.308,6.422,19.97,9.635
	C609.889,190.532,603.201,193.761,596.595,196.958z M579.764,205.117c-6.46,3.136-12.86,6.247-19.157,9.314
	c-6.241-3.148-12.364-6.232-18.414-9.275c6.101-3.069,12.279-6.184,18.476-9.309C567.016,198.935,573.396,202.026,579.764,205.117z
	 M449.78,268.767c-18.859-9.275-37.817-18.581-56.847-27.905c6.106-2.996,12.126-5.951,17.999-8.837
	c13.77,6.888,26.775,13.386,38.851,19.422c12.602-6.298,25.622-12.807,38.876-19.439c5.984,2.936,11.974,5.871,17.975,8.811
	C486.351,250.769,467.325,260.134,449.78,268.767z M449.787,177.233c18.859,9.275,37.817,18.581,56.847,27.905
	c-6.106,2.996-12.126,5.951-17.999,8.837c-13.77-6.888-26.775-13.386-38.85-19.422c-12.602,6.298-25.622,12.807-38.876,19.439
	c-5.984-2.936-11.974-5.871-17.975-8.811C413.216,195.231,432.241,185.867,449.787,177.233z M449.78,233.086
	c-6.813-3.351-13.677-6.718-20.512-10.076c7.045-3.465,13.887-6.832,20.519-10.096c6.813,3.351,13.677,6.718,20.512,10.076
	C463.255,226.455,456.412,229.822,449.78,233.086z M392.913,223.004c-5.964,2.989-11.945,5.987-18.019,9.036
	c-6.142-3.004-12.265-6.004-18.426-9.01c6.251-3.053,12.42-6.068,18.479-9.035C381.066,217.067,387.033,220.059,392.913,223.004z
	 M506.653,222.996c5.964-2.989,11.945-5.987,18.019-9.036c6.142,3.004,12.265,6.004,18.426,9.01
	c-6.251,3.053-12.42,6.068-18.479,9.035C518.501,228.933,512.534,225.942,506.653,222.996z M357.374,205.164
	c-6.101,3.069-12.279,6.184-18.476,9.309c-6.347-3.09-12.727-6.181-19.095-9.271c6.46-3.136,12.86-6.247,19.157-9.313
	C345.201,199.037,351.324,202.12,357.374,205.164z M322.003,223.004c-6.336,3.204-12.684,6.415-19.106,9.672
	c-6.64-3.213-13.308-6.422-19.97-9.635c6.75-3.254,13.438-6.483,20.044-9.68C309.394,216.62,315.739,219.835,322.003,223.004z
	 M338.96,231.57c6.241,3.148,12.364,6.232,18.414,9.275c-6.101,3.069-12.279,6.184-18.476,9.309
	c-6.347-3.09-12.727-6.181-19.095-9.271C326.263,237.748,332.663,234.637,338.96,231.57z M542.192,240.836
	c6.101-3.069,12.279-6.184,18.476-9.309c6.347,3.09,12.727,6.181,19.095,9.271c-6.46,3.136-12.86,6.247-19.157,9.313
	C554.366,246.964,548.243,243.88,542.192,240.836z M596.669,249.005c6.64,3.214,13.308,6.423,19.971,9.636
	c-6.762,3.258-13.452,6.488-20.047,9.679c-6.421-3.259-12.767-6.474-19.03-9.642C583.899,255.474,590.247,252.263,596.669,249.005z
	 M612.73,240.839c6.614-3.365,13.256-6.751,19.948-10.169c7.036,3.382,14.039,6.766,21.101,10.145
	c-7.136,3.411-14.204,6.797-21.193,10.154C625.906,247.555,619.276,244.171,612.73,240.839z M668.657,247.901
	c67.906,32.374,136.99,64.54,207.526,95.95c-0.105,0.058-0.211,0.115-0.316,0.173c0.117-0.052,0.234-0.105,0.351-0.157
	c0.117,0.052,0.231,0.105,0.348,0.157c-0.105-0.057-0.21-0.115-0.314-0.172c71.173-31.671,141.818-64.575,207.609-95.919
	c7.03,3.621,13.992,7.196,20.907,10.742c-73.489,37.656-151.068,78.305-228.551,120.84
	c-77.674-42.613-156.444-83.857-228.551-120.826C654.621,255.124,661.631,251.519,668.657,247.901z M1098.662,240.87
	c7.133-3.41,14.184-6.792,21.188-10.156c6.679,3.414,13.309,6.797,19.854,10.129c-6.615,3.365-13.257,6.751-19.949,10.169
	C1112.721,247.631,1105.721,244.247,1098.662,240.87z M1155.839,249.042c6.422,3.259,12.768,6.474,19.031,9.643
	c-6.336,3.204-12.684,6.415-19.106,9.672c-6.639-3.213-13.308-6.422-19.97-9.635
	C1142.544,255.469,1149.233,252.239,1155.839,249.042z M1172.67,240.884c6.46-3.136,12.86-6.247,19.157-9.314
	c6.241,3.148,12.364,6.232,18.415,9.275c-6.101,3.069-12.279,6.184-18.476,9.309C1185.418,247.065,1179.038,243.974,1172.67,240.884
	z M1395.059,240.836c6.101-3.069,12.279-6.184,18.476-9.309c6.347,3.09,12.727,6.181,19.095,9.271
	c-6.46,3.136-12.861,6.247-19.157,9.313C1407.233,246.963,1401.109,243.88,1395.059,240.836z M1485.453,250.969
	c-6.68-3.414-13.31-6.797-19.856-10.129c6.614-3.365,13.256-6.751,19.948-10.169c7.036,3.382,14.039,6.766,21.1,10.145
	C1499.51,244.226,1492.441,247.612,1485.453,250.969z M1544.154,222.966c-7.637,3.618-15.202,7.212-22.707,10.787
	c-7.034-3.623-13.997-7.198-20.915-10.746c6.956-3.564,13.965-7.17,20.991-10.787
	C1529.046,215.806,1536.602,219.385,1544.154,222.966z M1506.639,205.13c-7.134,3.41-14.185,6.792-21.188,10.156
	c-6.679-3.414-13.309-6.797-19.854-10.129c6.614-3.365,13.256-6.751,19.948-10.169
	C1492.578,198.37,1499.579,201.753,1506.639,205.13z M1469.506,187.278c-6.75,3.254-13.438,6.483-20.044,9.68
	c-6.422-3.259-12.767-6.474-19.032-9.643c6.336-3.204,12.684-6.415,19.106-9.672
	C1456.176,180.856,1462.843,184.065,1469.506,187.278z M1302.654,105.87c42.862,21.08,86.198,42.316,129.976,63.565
	c-6.46,3.136-12.86,6.247-19.157,9.314c-41.72-21.045-79.35-39.825-110.823-55.559c-34.599,17.291-71.854,35.918-110.886,55.602
	c-6.346-3.089-12.724-6.179-19.091-9.269C1222.713,145.238,1267.093,123.371,1302.654,105.87z M876.216,30.805
	c90.42,49.605,182.345,97.369,263.487,138.675c-6.614,3.365-13.257,6.751-19.949,10.169
	c-79.442-38.182-160.465-76.203-243.505-113.181c0.105-0.058,0.211-0.115,0.316-0.173c-0.117,0.052-0.234,0.105-0.351,0.157
	c-0.117-0.052-0.231-0.105-0.348-0.157c0.105,0.057,0.21,0.115,0.314,0.172C791.835,104,708.245,143.259,632.584,179.606
	c-6.68-3.414-13.307-6.795-19.855-10.128C696.33,126.944,786.326,80.15,876.216,30.805z M449.787,105.87
	c42.862,21.08,86.199,42.316,129.977,63.565c-6.46,3.136-12.86,6.247-19.157,9.314c-41.719-21.045-79.35-39.825-110.823-55.559
	c-34.599,17.291-71.854,35.918-110.886,55.602c-6.346-3.089-12.725-6.179-19.091-9.269
	C369.845,145.238,414.226,123.371,449.787,105.87z M302.973,177.68c6.421,3.259,12.767,6.474,19.03,9.642
	c-6.336,3.204-12.684,6.415-19.106,9.672c-6.64-3.214-13.308-6.423-19.971-9.636C289.688,184.101,296.379,180.871,302.973,177.68z
	 M266.98,195.031c6.68,3.414,13.31,6.797,19.856,10.13c-6.614,3.365-13.256,6.751-19.948,10.169
	c-7.036-3.382-14.039-6.766-21.101-10.145C252.923,201.774,259.992,198.388,266.98,195.031z M208.279,223.035
	c7.637-3.618,15.201-7.212,22.706-10.787c7.035,3.623,13.997,7.199,20.915,10.746c-6.956,3.564-13.966,7.169-20.992,10.787
	C223.387,230.194,215.832,226.615,208.279,223.035z M245.795,240.87c7.133-3.41,14.184-6.792,21.187-10.156
	c6.679,3.414,13.309,6.797,19.855,10.129c-6.614,3.365-13.257,6.751-19.949,10.169C259.855,247.631,252.854,244.247,245.795,240.87z
	 M282.927,258.722c6.75-3.254,13.438-6.483,20.044-9.68c6.422,3.259,12.767,6.474,19.032,9.643
	c-6.336,3.204-12.684,6.415-19.106,9.672C296.258,265.144,289.59,261.935,282.927,258.722z M449.78,340.13
	c-42.862-21.08-86.199-42.316-129.977-63.565c6.46-3.136,12.861-6.247,19.157-9.314c41.719,21.045,79.35,39.825,110.823,55.559
	c34.599-17.29,71.854-35.918,110.886-55.602c6.346,3.089,12.725,6.179,19.091,9.269C529.721,300.763,485.341,322.629,449.78,340.13z
	 M876.217,415.195c-90.42-49.605-182.345-97.369-263.487-138.675c6.614-3.365,13.257-6.751,19.948-10.169
	c79.442,38.182,160.465,76.203,243.505,113.181c-0.105,0.058-0.211,0.115-0.316,0.173c0.117-0.052,0.234-0.105,0.351-0.157
	c0.117,0.052,0.231,0.105,0.348,0.157c-0.105-0.057-0.21-0.115-0.314-0.172c84.346-37.533,167.936-76.793,243.598-113.139
	c6.679,3.414,13.307,6.795,19.855,10.128C1056.104,319.056,966.107,365.85,876.217,415.195z M1302.647,340.13
	c-42.862-21.08-86.199-42.316-129.977-63.565c6.46-3.136,12.86-6.247,19.157-9.314c41.719,21.045,79.35,39.825,110.823,55.559
	c34.599-17.29,71.855-35.918,110.885-55.602c6.346,3.089,12.725,6.179,19.091,9.269
	C1382.588,300.763,1338.208,322.629,1302.647,340.13z M2583,66.295c-84.477,37.585-168.206,76.909-243.983,113.311
	c-6.679-3.414-13.307-6.795-19.856-10.128c83.71-42.588,173.832-89.448,263.838-138.864
	c-98.09,43.641-195.189,89.634-279.974,130.664c-55.897-28.368-106.228-53.481-146.809-73.769
	c-45.108,22.543-94.632,47.298-146.886,73.805c-91.029-44.057-184.148-88.069-279.898-130.7
	c90.532,49.673,182.59,97.507,263.837,138.866c-6.614,3.365-13.256,6.751-19.948,10.169
	c-79.565-38.241-160.714-76.322-243.888-113.354c77.787,42.68,156.685,83.993,228.901,121.018
	c-6.956,3.564-13.965,7.169-20.992,10.787c-68.03-32.433-137.239-64.659-207.909-96.123c65.501,35.939,131.8,70.914,194.227,103.173
	c-7.403,3.823-14.831,7.668-22.298,11.546c-56.429-26.655-113.684-53.105-171.93-79.038c53.61,29.415,107.723,58.166,159.85,85.333
	c-52.414,27.31-106.147,55.869-159.85,85.353c58.309-25.942,116.632-52.896,172.001-79.031c7.454,3.873,14.87,7.718,22.227,11.518
	c-63.132,32.608-128.717,67.226-194.228,103.194c71.303-31.724,142.084-64.691,207.994-96.091
	c7.03,3.621,13.991,7.196,20.907,10.742c-73.599,37.712-151.302,78.426-228.902,121.031
	c84.477-37.585,168.206-76.909,243.983-113.311c6.68,3.414,13.307,6.795,19.856,10.128
	c-83.71,42.588-173.832,89.448-263.838,138.864c98.09-43.641,195.189-89.634,279.973-130.664
	c55.897,28.368,106.228,53.481,146.81,73.769c45.108-22.543,94.632-47.298,146.886-73.805
	c91.03,44.057,184.149,88.069,279.898,130.7c-90.532-49.673-182.59-97.507-263.837-138.866c6.614-3.365,13.257-6.751,19.948-10.169
	c79.565,38.241,160.714,76.322,243.888,113.354c-77.787-42.68-156.685-83.993-228.901-121.018
	c6.956-3.564,13.965-7.17,20.992-10.787c68.03,32.433,137.239,64.659,207.909,96.123c-65.501-35.939-131.8-70.914-194.228-103.173
	c7.403-3.823,14.831-7.668,22.298-11.546c56.43,26.655,113.684,53.105,171.93,79.038c-53.61-29.415-107.723-58.166-159.85-85.333
	c52.414-27.31,106.148-55.869,159.85-85.353c-58.309,25.942-116.632,52.896-172.001,79.031c-7.454-3.873-14.87-7.718-22.227-11.518
	c63.132-32.608,128.717-67.226,194.228-103.194c-71.303,31.724-142.084,64.691-207.994,96.091
	c-7.03-3.621-13.991-7.196-20.907-10.742C2427.698,149.613,2505.4,108.899,2583,66.295z M2323.072,187.278
	c-6.75,3.254-13.438,6.483-20.044,9.68c-6.422-3.259-12.768-6.474-19.032-9.643c6.336-3.204,12.685-6.415,19.106-9.672
	C2309.742,180.856,2316.41,184.065,2323.072,187.278z M2156.214,304.449c-30.869-15.182-61.976-30.446-93.312-45.737
	c6.251-3.053,12.42-6.068,18.479-9.035c27.512,13.81,52.696,26.384,74.836,37.452c23.806-11.897,48.875-24.428,74.89-37.488
	c6.142,3.004,12.265,6.004,18.425,9.01C2215.332,275.352,2183.924,290.812,2156.214,304.449z M2156.22,141.551
	c30.869,15.182,61.976,30.446,93.312,45.737c-6.251,3.052-12.42,6.068-18.479,9.035c-27.512-13.81-52.696-26.384-74.836-37.452
	c-23.806,11.897-48.875,24.428-74.89,37.488c-6.142-3.004-12.265-6.004-18.425-9.01
	C2097.101,170.648,2128.509,155.188,2156.22,141.551z M2156.214,268.767c-18.859-9.275-37.817-18.581-56.847-27.905
	c6.106-2.996,12.126-5.951,17.999-8.837c13.77,6.888,26.775,13.386,38.851,19.422c12.601-6.298,25.622-12.807,38.875-19.439
	c5.984,2.936,11.974,5.871,17.975,8.811C2192.784,250.769,2173.759,260.134,2156.214,268.767z M2081.327,232.041
	c-6.142-3.004-12.265-6.004-18.426-9.01c6.251-3.052,12.42-6.068,18.479-9.035c6.119,3.071,12.085,6.063,17.966,9.009
	C2093.382,225.993,2087.402,228.992,2081.327,232.041z M2156.22,212.914c6.813,3.351,13.677,6.718,20.513,10.076
	c-7.044,3.465-13.887,6.832-20.519,10.096c-6.813-3.351-13.677-6.718-20.513-10.076
	C2142.745,219.545,2149.588,216.178,2156.22,212.914z M2213.087,222.996c5.964-2.989,11.945-5.987,18.019-9.036
	c6.142,3.004,12.265,6.004,18.426,9.01c-6.251,3.052-12.42,6.068-18.479,9.035C2224.934,228.933,2218.967,225.942,2213.087,222.996z
	 M2195.068,213.975c-13.77-6.888-26.775-13.386-38.851-19.422c-12.601,6.298-25.622,12.807-38.875,19.439
	c-5.984-2.936-11.974-5.871-17.975-8.811c20.282-9.95,39.308-19.314,56.853-27.948c18.859,9.275,37.817,18.581,56.847,27.905
	C2206.96,208.134,2200.94,211.089,2195.068,213.975z M2063.808,205.164c-6.102,3.069-12.28,6.184-18.476,9.309
	c-6.348-3.09-12.728-6.181-19.095-9.271c6.46-3.136,12.86-6.247,19.157-9.313C2051.634,199.037,2057.757,202.12,2063.808,205.164z
	 M2028.437,223.004c-6.336,3.204-12.684,6.415-19.106,9.672c-6.64-3.213-13.308-6.422-19.97-9.635
	c6.75-3.254,13.438-6.483,20.044-9.68C2015.827,216.62,2022.172,219.835,2028.437,223.004z M2045.393,231.57
	c6.241,3.148,12.364,6.232,18.415,9.275c-6.102,3.069-12.28,6.184-18.476,9.309c-6.348-3.09-12.728-6.181-19.095-9.271
	C2032.697,237.748,2039.097,234.637,2045.393,231.57z M2248.625,240.836c6.102-3.069,12.28-6.184,18.476-9.309
	c6.348,3.09,12.728,6.181,19.095,9.271c-6.46,3.136-12.86,6.247-19.157,9.313C2260.8,246.964,2254.676,243.88,2248.625,240.836z
	 M2283.997,222.997c6.336-3.204,12.684-6.415,19.105-9.672c6.64,3.213,13.308,6.422,19.97,9.635
	c-6.75,3.254-13.438,6.483-20.044,9.68C2296.606,229.38,2290.261,226.165,2283.997,222.997z M2267.04,214.43
	c-6.24-3.148-12.364-6.232-18.415-9.275c6.102-3.069,12.279-6.184,18.476-9.309c6.348,3.09,12.728,6.181,19.095,9.271
	C2279.737,208.253,2273.337,211.364,2267.04,214.43z M2156.22,105.87c42.862,21.08,86.199,42.316,129.977,63.565
	c-6.46,3.136-12.86,6.247-19.157,9.314c-41.719-21.045-79.35-39.825-110.823-55.559c-34.598,17.291-71.854,35.918-110.885,55.602
	c-6.346-3.089-12.724-6.179-19.091-9.269C2076.279,145.237,2120.659,123.371,2156.22,105.87z M2009.407,177.68
	c6.421,3.259,12.766,6.474,19.03,9.642c-6.336,3.204-12.684,6.415-19.106,9.672c-6.64-3.214-13.308-6.423-19.971-9.635
	C1996.122,184.101,2002.812,180.871,2009.407,177.68z M1973.414,195.031c6.68,3.414,13.31,6.797,19.856,10.129
	c-6.614,3.365-13.256,6.751-19.948,10.169c-7.036-3.382-14.038-6.766-21.1-10.145
	C1959.357,201.774,1966.425,198.388,1973.414,195.031z M1914.713,223.035c7.637-3.618,15.201-7.212,22.706-10.787
	c7.035,3.623,13.997,7.198,20.915,10.746c-6.956,3.564-13.966,7.17-20.991,10.787
	C1929.82,230.194,1922.265,226.615,1914.713,223.035z M1952.228,240.87c7.134-3.41,14.185-6.792,21.188-10.156
	c6.679,3.414,13.309,6.797,19.854,10.129c-6.614,3.365-13.256,6.751-19.948,10.169
	C1966.288,247.631,1959.288,244.247,1952.228,240.87z M1989.361,258.722c6.75-3.254,13.438-6.483,20.044-9.68
	c6.422,3.259,12.768,6.474,19.032,9.643c-6.336,3.204-12.685,6.415-19.106,9.672
	C2002.691,265.144,1996.023,261.935,1989.361,258.722z M2156.213,340.13c-42.862-21.08-86.198-42.316-129.977-63.565
	c6.46-3.136,12.86-6.247,19.157-9.314c41.72,21.045,79.35,39.825,110.823,55.559c34.598-17.29,71.854-35.918,110.885-55.602
	c6.346,3.089,12.725,6.179,19.091,9.269C2236.154,300.763,2191.774,322.629,2156.213,340.13z M2303.026,268.32
	c-6.421-3.259-12.766-6.474-19.03-9.642c6.336-3.204,12.684-6.415,19.106-9.672c6.64,3.214,13.308,6.423,19.971,9.635
	C2316.312,261.899,2309.621,265.129,2303.026,268.32z M2339.02,250.969c-6.68-3.414-13.31-6.798-19.856-10.13
	c6.614-3.365,13.257-6.751,19.948-10.169c7.036,3.382,14.038,6.766,21.1,10.145C2353.076,244.226,2346.008,247.613,2339.02,250.969z
	 M2397.721,222.966c-7.637,3.618-15.202,7.212-22.706,10.787c-7.035-3.623-13.997-7.198-20.916-10.746
	c6.956-3.564,13.966-7.17,20.992-10.787C2382.613,215.806,2390.168,219.385,2397.721,222.966z M2360.205,205.13
	c-7.134,3.41-14.185,6.792-21.188,10.156c-6.679-3.414-13.31-6.797-19.854-10.129c6.614-3.365,13.257-6.751,19.948-10.169
	C2346.145,198.37,2353.145,201.753,2360.205,205.13z"/>
</svg>
