{
  "accessors": [
    {
      "bufferView": 1,
      "componentType": 5126,
      "count": 65532,
      "max": [
        470.58502197265625,
        -676.7373657226563,
        63.90296936035156
      ],
      "min": [
        -129.45660400390625,
        -1504.947509765625,
        -846.9423828125
      ],
      "type": "VEC3"
    },
    {
      "bufferView": 1,
      "byteOffset": 786384,
      "componentType": 5126,
      "count": 65532,
      "max": [
        0.9999590516090393,
        0.9999516606330872,
        0.9999549984931946
      ],
      "min": [
        -0.9999970197677612,
        -0.9996995329856873,
        -0.9997132420539856
      ],
      "type": "VEC3"
    },
    {
      "bufferView": 0,
      "componentType": 5125,
      "count": 328413,
      "type": "SCALAR"
    },
    {
      "bufferView": 1,
      "byteOffset": 1572768,
      "componentType": 5126,
      "count": 65532,
      "max": [
        302.61065673828125,
        -893.1290893554688,
        -21.098831176757813
      ],
      "min": [
        -224.49343872070313,
        -1484.7154541015625,
        -578.6179809570313
      ],
      "type": "VEC3"
    },
    {
      "bufferView": 1,
      "byteOffset": 2359152,
      "componentType": 5126,
      "count": 65532,
      "max": [
        0.9997839331626892,
        0.999961793422699,
        0.9999849200248718
      ],
      "min": [
        -0.9999639987945557,
        -0.9993406534194946,
        -0.9999403953552246
      ],
      "type": "VEC3"
    },
    {
      "bufferView": 0,
      "byteOffset": 1313652,
      "componentType": 5125,
      "count": 331728,
      "type": "SCALAR"
    },
    {
      "bufferView": 1,
      "byteOffset": 3145536,
      "componentType": 5126,
      "count": 65532,
      "max": [
        375.32537841796875,
        -768.5540771484375,
        158.2570037841797
      ],
      "min": [
        -72.50988006591797,
        -1578.311767578125,
        -635.7050170898438
      ],
      "type": "VEC3"
    },
    {
      "bufferView": 1,
      "byteOffset": 3931920,
      "componentType": 5126,
      "count": 65532,
      "max": [
        0.9999877214431763,
        0.9999578595161438,
        0.9999753832817078
      ],
      "min": [
        -0.9996187090873718,
        -0.9999938011169434,
        -0.9999978542327881
      ],
      "type": "VEC3"
    },
    {
      "bufferView": 0,
      "byteOffset": 2640564,
      "componentType": 5125,
      "count": 321048,
      "type": "SCALAR"
    },
    {
      "bufferView": 1,
      "byteOffset": 4718304,
      "componentType": 5126,
      "count": 65532,
      "max": [
        186.96658325195313,
        -674.8217163085938,
        98.03960418701172
      ],
      "min": [
        -334.0910339355469,
        -1446.4000244140625,
        -499.5705261230469
      ],
      "type": "VEC3"
    },
    {
      "bufferView": 1,
      "byteOffset": 5504688,
      "componentType": 5126,
      "count": 65532,
      "max": [
        0.6618559956550598,
        0.9787704348564148,
        0.9999760389328003
      ],
      "min": [
        -0.9999992847442627,
        -0.9998641610145569,
        -0.9724940061569214
      ],
      "type": "VEC3"
    },
    {
      "bufferView": 0,
      "byteOffset": 3924756,
      "componentType": 5125,
      "count": 324894,
      "type": "SCALAR"
    },
    {
      "bufferView": 1,
      "byteOffset": 6291072,
      "componentType": 5126,
      "count": 65532,
      "max": [
        228.8192901611328,
        -1130.316650390625,
        -95.54747772216797
      ],
      "min": [
        -335.0292053222656,
        -1508.931640625,
        -755.8873901367188
      ],
      "type": "VEC3"
    },
    {
      "bufferView": 1,
      "byteOffset": 7077456,
      "componentType": 5126,
      "count": 65532,
      "max": [
        0.6641042828559875,
        0.9999836087226868,
        0.9963305592536926
      ],
      "min": [
        -0.999995231628418,
        -0.9374062418937683,
        -0.9999936819076538
      ],
      "type": "VEC3"
    },
    {
      "bufferView": 0,
      "byteOffset": 5224332,
      "componentType": 5125,
      "count": 305046,
      "type": "SCALAR"
    },
    {
      "bufferView": 1,
      "byteOffset": 7863840,
      "componentType": 5126,
      "count": 29707,
      "max": [
        433.57659912109375,
        -1135.575927734375,
        -110.19086456298828
      ],
      "min": [
        -259.0299377441406,
        -1504.091064453125,
        -738.8660888671875
      ],
      "type": "VEC3"
    },
    {
      "bufferView": 1,
      "byteOffset": 8220324,
      "componentType": 5126,
      "count": 29707,
      "max": [
        0.9999923706054688,
        0.9999358654022217,
        0.9951293468475342
      ],
      "min": [
        -0.9997225403785706,
        -0.8508499264717102,
        -0.9999687671661377
      ],
      "type": "VEC3"
    },
    {
      "bufferView": 0,
      "byteOffset": 6444516,
      "componentType": 5125,
      "count": 138441,
      "type": "SCALAR"
    }
  ],
  "asset": {
    "extras": {
      "author": "postdadafuturism (https://sketchfab.com/postdadafuturism)",
      "license": "CC-BY-4.0 (http://creativecommons.org/licenses/by/4.0/)",
      "source": "https://sketchfab.com/3d-models/3d-scan-glitch-eff63a63dda443bc89f127b606c9d9da",
      "title": "3D scan glitch"
    },
    "generator": "Sketchfab-12.64.0",
    "version": "2.0"
  },
  "bufferViews": [
    {
      "buffer": 0,
      "byteLength": 6998280,
      "name": "floatBufferViews",
      "target": 34963
    },
    {
      "buffer": 0,
      "byteLength": 8576808,
      "byteOffset": 6998280,
      "byteStride": 12,
      "name": "floatBufferViews",
      "target": 34962
    }
  ],
  "buffers": [
    {
      "byteLength": 15575088,
      "uri": "scene.bin"
    }
  ],
  "extensionsRequired": [
    "KHR_materials_pbrSpecularGlossiness"
  ],
  "extensionsUsed": [
    "KHR_materials_pbrSpecularGlossiness"
  ],
  "materials": [
    {
      "doubleSided": true,
      "extensions": {
        "KHR_materials_pbrSpecularGlossiness": {
          "diffuseFactor": [
            0.0626905488,
            0.0626905488,
            0.0626905488,
            1.0
          ],
          "glossinessFactor": 1.0,
          "specularFactor": [
            0.7578125,
            0.7578125,
            0.7578125
          ]
        }
      },
      "name": "Scene_-_Root"
    }
  ],
  "meshes": [
    {
      "name": "Object_0",
      "primitives": [
        {
          "attributes": {
            "NORMAL": 1,
            "POSITION": 0
          },
          "indices": 2,
          "material": 0,
          "mode": 4
        }
      ]
    },
    {
      "name": "Object_1",
      "primitives": [
        {
          "attributes": {
            "NORMAL": 4,
            "POSITION": 3
          },
          "indices": 5,
          "material": 0,
          "mode": 4
        }
      ]
    },
    {
      "name": "Object_2",
      "primitives": [
        {
          "attributes": {
            "NORMAL": 7,
            "POSITION": 6
          },
          "indices": 8,
          "material": 0,
          "mode": 4
        }
      ]
    },
    {
      "name": "Object_3",
      "primitives": [
        {
          "attributes": {
            "NORMAL": 10,
            "POSITION": 9
          },
          "indices": 11,
          "material": 0,
          "mode": 4
        }
      ]
    },
    {
      "name": "Object_4",
      "primitives": [
        {
          "attributes": {
            "NORMAL": 13,
            "POSITION": 12
          },
          "indices": 14,
          "material": 0,
          "mode": 4
        }
      ]
    },
    {
      "name": "Object_5",
      "primitives": [
        {
          "attributes": {
            "NORMAL": 16,
            "POSITION": 15
          },
          "indices": 17,
          "material": 0,
          "mode": 4
        }
      ]
    }
  ],
  "nodes": [
    {
      "children": [
        1
      ],
      "matrix": [
        -0.5973522067070007,
        0.758810579776764,
        -0.25957038998603804,
        0.0,
        0.4922127425670624,
        0.6024213433265685,
        0.6283432245254518,
        0.0,
        0.6331642270088196,
        0.2475783526897432,
        -0.7333539724349976,
        0.0,
        880.7994995117188,
        368.1450805664059,
        1599.5013427734375,
        1.0
      ],
      "name": "Sketchfab_model"
    },
    {
      "children": [
        2,
        3,
        4,
        5,
        6,
        7
      ],
      "name": "24.stl.cleaner.materialmerger.gles"
    },
    {
      "mesh": 0,
      "name": "Object_2"
    },
    {
      "mesh": 1,
      "name": "Object_3"
    },
    {
      "mesh": 2,
      "name": "Object_4"
    },
    {
      "mesh": 3,
      "name": "Object_5"
    },
    {
      "mesh": 4,
      "name": "Object_6"
    },
    {
      "mesh": 5,
      "name": "Object_7"
    }
  ],
  "scene": 0,
  "scenes": [
    {
      "name": "Sketchfab_Scene",
      "nodes": [
        0
      ]
    }
  ]
}
