{
  "accessors": [
    {
      "bufferView": 2,
      "componentType": 5126,
      "count": 30476,
      "max": [
        1.78482186794281,
        3.820953369140625,
        2.125568151473999
      ],
      "min": [
        -0.8020402789115906,
        -0.11189945042133331,
        -0.43571987748146057
      ],
      "type": "VEC3"
    },
    {
      "bufferView": 2,
      "byteOffset": 365712,
      "componentType": 5126,
      "count": 30476,
      "max": [
        0.9999966621398926,
        0.9996958374977112,
        0.9999756813049316
      ],
      "min": [
        -0.9999971985816956,
        -0.9995737075805664,
        -0.999954104423523
      ],
      "type": "VEC3"
    },
    {
      "bufferView": 3,
      "componentType": 5126,
      "count": 30476,
      "max": [
        0.9921568632125854,
        0.9843137264251709,
        0.9843137264251709,
        1.0
      ],
      "min": [
        0.003921568859368563,
        0.0,
        0.003921568859368563,
        1.0
      ],
      "type": "VEC4"
    },
    {
      "bufferView": 1,
      "componentType": 5126,
      "count": 30476,
      "max": [
        1.0,
        1.0
      ],
      "min": [
        0.0,
        0.0
      ],
      "type": "VEC2"
    },
    {
      "bufferView": 0,
      "componentType": 5125,
      "count": 89292,
      "type": "SCALAR"
    }
  ],
  "asset": {
    "extras": {
      "author": "dinda.artist (https://sketchfab.com/dinda.artist)",
      "license": "CC-BY-SA-4.0 (http://creativecommons.org/licenses/by-sa/4.0/)",
      "source": "https://sketchfab.com/3d-models/plant-energy-9e02744b3eb346fd949e3386d3fe9112",
      "title": "Plant Energy"
    },
    "generator": "Sketchfab-12.66.0",
    "version": "2.0"
  },
  "bufferViews": [
    {
      "buffer": 0,
      "byteLength": 357168,
      "name": "floatBufferViews",
      "target": 34963
    },
    {
      "buffer": 0,
      "byteLength": 243808,
      "byteOffset": 357168,
      "byteStride": 8,
      "name": "floatBufferViews",
      "target": 34962
    },
    {
      "buffer": 0,
      "byteLength": 731424,
      "byteOffset": 600976,
      "byteStride": 12,
      "name": "floatBufferViews",
      "target": 34962
    },
    {
      "buffer": 0,
      "byteLength": 487616,
      "byteOffset": 1332400,
      "byteStride": 16,
      "name": "floatBufferViews",
      "target": 34962
    }
  ],
  "buffers": [
    {
      "byteLength": 1820016,
      "uri": "scene.bin"
    }
  ],
  "images": [
    {
      "uri": "textures/brush_VelvetInk_baseColor.png"
    },
    {
      "uri": "textures/brush_VelvetInk_metallicRoughness.png"
    }
  ],
  "materials": [
    {
      "alphaMode": "BLEND",
      "doubleSided": true,
      "name": "brush_VelvetInk",
      "pbrMetallicRoughness": {
        "baseColorFactor": [
          0.6462084040153464,
          0.6462084040153464,
          0.6462084040153464,
          0.5671661528920344
        ],
        "baseColorTexture": {
          "index": 0
        },
        "metallicRoughnessTexture": {
          "index": 1
        },
        "roughnessFactor": 0.0
      }
    }
  ],
  "meshes": [
    {
      "name": "Object_0",
      "primitives": [
        {
          "attributes": {
            "COLOR_0": 2,
            "NORMAL": 1,
            "POSITION": 0,
            "TEXCOORD_0": 3
          },
          "indices": 4,
          "material": 0,
          "mode": 4
        }
      ]
    }
  ],
  "nodes": [
    {
      "children": [
        1
      ],
      "matrix": [
        1.0743969678878784,
        0.0,
        0.0,
        0.0,
        0.0,
        2.385640502673155e-16,
        -1.0743969678878784,
        0.0,
        0.0,
        1.0743969678878784,
        2.385640502673155e-16,
        0.0,
        0.0,
        0.0,
        0.0,
        1.0
      ],
      "name": "Sketchfab_model"
    },
    {
      "children": [
        2
      ],
      "name": "root"
    },
    {
      "children": [
        3
      ],
      "matrix": [
        1.0,
        0.0,
        0.0,
        0.0,
        0.0,
        2.220446049250313e-16,
        1.0,
        0.0,
        0.0,
        -1.0,
        2.220446049250313e-16,
        0.0,
        0.0,
        0.0,
        0.0,
        1.0
      ],
      "name": "GLTF_SceneRootNode"
    },
    {
      "children": [
        4
      ],
      "name": "brush_VelvetInk_g0_b0_0"
    },
    {
      "mesh": 0,
      "name": "Object_4"
    }
  ],
  "samplers": [
    {
      "magFilter": 9729,
      "minFilter": 9987,
      "wrapS": 10497,
      "wrapT": 10497
    }
  ],
  "scene": 0,
  "scenes": [
    {
      "name": "Sketchfab_Scene",
      "nodes": [
        0
      ]
    }
  ],
  "textures": [
    {
      "sampler": 0,
      "source": 0
    },
    {
      "sampler": 0,
      "source": 1
    }
  ]
}
